<svg id="Layer_1" data-name="Layer 1" xmlns="http://www.w3.org/2000/svg" viewBox="0 0 64 64"><title>calendar</title><path d="M55.89,24H8.11A4.11,4.11,0,0,0,4,28.11V51a9,9,0,0,0,9,9H51a9,9,0,0,0,9-9V28.11A4.11,4.11,0,0,0,55.89,24ZM19,47.35A2.65,2.65,0,0,1,16.35,50h-.69A2.65,2.65,0,0,1,13,47.35v-.69A2.65,2.65,0,0,1,15.65,44h.69A2.65,2.65,0,0,1,19,46.65Zm0-12A2.65,2.65,0,0,1,16.35,38h-.69A2.65,2.65,0,0,1,13,35.35v-.69A2.65,2.65,0,0,1,15.65,32h.69A2.65,2.65,0,0,1,19,34.65Zm16,12A2.65,2.65,0,0,1,32.35,50h-.69A2.65,2.65,0,0,1,29,47.35v-.69A2.65,2.65,0,0,1,31.65,44h.69A2.65,2.65,0,0,1,35,46.65Zm0-12A2.65,2.65,0,0,1,32.35,38h-.69A2.65,2.65,0,0,1,29,35.35v-.69A2.65,2.65,0,0,1,31.65,32h.69A2.65,2.65,0,0,1,35,34.65Zm16,12A2.65,2.65,0,0,1,48.35,50h-.69A2.65,2.65,0,0,1,45,47.35v-.69A2.65,2.65,0,0,1,47.65,44h.69A2.65,2.65,0,0,1,51,46.65Zm0-12A2.65,2.65,0,0,1,48.35,38h-.69A2.65,2.65,0,0,1,45,35.35v-.69A2.65,2.65,0,0,1,47.65,32h.69A2.65,2.65,0,0,1,51,34.65Z"/><path d="M56.36,8H52a4,4,0,0,0-8,0v2a2,2,0,0,1-4,0V9.59A1.59,1.59,0,0,0,38.41,8H20a4,4,0,0,0-8,0v2a2,2,0,0,1-4,0V8H7.64A3.64,3.64,0,0,0,4,11.64V18a2,2,0,0,0,2,2H58a2,2,0,0,0,2-2V11.64A3.64,3.64,0,0,0,56.36,8Z"/></svg>