<?xml version="1.0" ?><svg viewBox="0 0 32 32" xmlns="http://www.w3.org/2000/svg"><defs><style>.cls-1{fill:none;}</style></defs><title/><g data-name="Layer 2" id="Layer_2"><path d="M16,7a2,2,0,1,1,2-2A2,2,0,0,1,16,7Zm0-2h0Zm0,0h0Zm0,0h0Zm0,0h0Zm0,0h0Zm0,0h0Zm0,0h0Zm0,0h0Z"/><path d="M16,18a2,2,0,1,1,2-2A2,2,0,0,1,16,18Zm0-2h0Zm0,0h0Zm0,0h0Zm0,0h0Zm0,0h0Zm0,0h0Zm0,0h0Zm0,0h0Z"/><path d="M16,29a2,2,0,1,1,2-2A2,2,0,0,1,16,29Zm0-2h0Zm0,0h0Zm0,0h0Zm0,0h0Zm0,0h0Zm0,0h0Zm0,0h0Zm0,0h0Z"/></g><g id="frame"><rect class="cls-1" height="32" width="32"/></g></svg>