<svg width="20" height="18" viewBox="0 0 20 18" fill="none" xmlns="http://www.w3.org/2000/svg">
<path d="M10 16.9173C10 16.9173 3.03318 14.2454 1.54029 8.4069C1.34124 7.81315 0.644555 4.54753 2.53555 2.4694C3.63034 1.2819 5.0237 1.08398 5.52133 1.08398C5.62086 1.08398 5.62086 1.08398 5.72038 1.08398C7.11375 1.08398 8.40758 1.77669 9.40284 2.96419L10 3.6569L10.5972 2.96419C11.5924 1.77669 12.9858 1.08398 14.2796 1.08398C14.3791 1.08398 14.3791 1.08398 14.4787 1.08398C14.8768 1.08398 16.2701 1.2819 17.4645 2.4694C19.3554 4.54753 18.6588 7.81315 18.4597 8.4069C16.9668 14.2454 10 16.9173 10 16.9173Z" stroke="#555555" stroke-width="2" stroke-linecap="round" stroke-linejoin="round"/>
</svg>
